<mxfile host="app.diagrams.net" modified="2022-09-19T17:25:05.923Z" agent="5.0 (Windows NT 10.0; Win64; x64) AppleWebKit/537.36 (KHTML, like Gecko) Chrome/105.0.0.0 Safari/537.36" etag="9oR1GiZsIZQxkArvgvse" version="20.3.3" type="github">
  <diagram id="PmWYYEKr99N7L1ZH-hNy" name="Страница 1">
    <mxGraphModel dx="1662" dy="1931" grid="1" gridSize="10" guides="1" tooltips="1" connect="1" arrows="1" fold="1" page="1" pageScale="1" pageWidth="827" pageHeight="1169" math="0" shadow="0">
      <root>
        <mxCell id="0" />
        <mxCell id="1" parent="0" />
        <mxCell id="sT5NQ2_TcTJsYgIKJv6b-1" value="" style="strokeWidth=1;shadow=0;dashed=0;align=center;html=1;shape=mxgraph.mockup.containers.browserWindow;rSize=0;strokeColor=#666666;strokeColor2=#008cff;strokeColor3=#c4c4c4;mainText=,;recursiveResize=0;" vertex="1" parent="1">
          <mxGeometry x="270" y="-640" width="370" height="560" as="geometry" />
        </mxCell>
        <mxCell id="sT5NQ2_TcTJsYgIKJv6b-2" value="Page 1" style="strokeWidth=1;shadow=0;dashed=0;align=center;html=1;shape=mxgraph.mockup.containers.anchor;fontSize=17;fontColor=#666666;align=left;" vertex="1" parent="sT5NQ2_TcTJsYgIKJv6b-1">
          <mxGeometry x="60" y="12" width="110" height="26" as="geometry" />
        </mxCell>
        <mxCell id="sT5NQ2_TcTJsYgIKJv6b-3" value="https://www.healthymusic" style="strokeWidth=1;shadow=0;dashed=0;align=center;html=1;shape=mxgraph.mockup.containers.anchor;rSize=0;fontSize=17;fontColor=#666666;align=left;" vertex="1" parent="sT5NQ2_TcTJsYgIKJv6b-1">
          <mxGeometry x="130" y="60" width="250" height="26" as="geometry" />
        </mxCell>
        <mxCell id="sT5NQ2_TcTJsYgIKJv6b-4" value="&lt;font style=&quot;font-size: 24px;&quot;&gt;Реєстрація&lt;/font&gt;" style="text;html=1;strokeColor=none;fillColor=none;align=center;verticalAlign=middle;whiteSpace=wrap;rounded=0;" vertex="1" parent="sT5NQ2_TcTJsYgIKJv6b-1">
          <mxGeometry x="115" y="160" width="155" height="40" as="geometry" />
        </mxCell>
        <mxCell id="sT5NQ2_TcTJsYgIKJv6b-5" value="&lt;font style=&quot;font-size: 18px;&quot;&gt;&amp;nbsp; user@gmail.com&lt;/font&gt;" style="rounded=0;whiteSpace=wrap;html=1;fontSize=24;align=left;" vertex="1" parent="sT5NQ2_TcTJsYgIKJv6b-1">
          <mxGeometry x="56" y="220" width="258" height="40" as="geometry" />
        </mxCell>
        <mxCell id="sT5NQ2_TcTJsYgIKJv6b-6" value="&lt;span style=&quot;font-size: 18px;&quot;&gt;&amp;nbsp; ************&lt;/span&gt;" style="rounded=0;whiteSpace=wrap;html=1;fontSize=24;align=left;" vertex="1" parent="sT5NQ2_TcTJsYgIKJv6b-1">
          <mxGeometry x="56" y="290" width="258" height="40" as="geometry" />
        </mxCell>
        <mxCell id="sT5NQ2_TcTJsYgIKJv6b-7" value="Зареєструватись" style="strokeWidth=1;shadow=0;dashed=0;align=center;html=1;shape=mxgraph.mockup.buttons.button;strokeColor=#666666;fontColor=#ffffff;mainText=;buttonStyle=round;fontSize=17;fontStyle=1;fillColor=#008cff;whiteSpace=wrap;" vertex="1" parent="sT5NQ2_TcTJsYgIKJv6b-1">
          <mxGeometry x="100" y="370" width="170" height="50" as="geometry" />
        </mxCell>
        <mxCell id="sT5NQ2_TcTJsYgIKJv6b-8" value="У мене вже є акаунт" style="strokeWidth=1;shadow=0;dashed=0;align=center;html=1;shape=mxgraph.mockup.buttons.button;strokeColor=#666666;fontColor=#ffffff;mainText=;buttonStyle=round;fontSize=17;fontStyle=1;fillColor=#008cff;whiteSpace=wrap;" vertex="1" parent="sT5NQ2_TcTJsYgIKJv6b-1">
          <mxGeometry x="120" y="445" width="130" height="40" as="geometry" />
        </mxCell>
      </root>
    </mxGraphModel>
  </diagram>
</mxfile>
